<?xml version="1.0" encoding="UTF-8"?>
<!-- Generator: Adobe Illustrator 25.4.1, SVG Export Plug-In . SVG Version: 6.00 Build 0)  -->
<svg version="1.1" id="Calque_1" xmlns="http://www.w3.org/2000/svg" xmlns:xlink="http://www.w3.org/1999/xlink" x="0px" y="0px" viewBox="0 0 261.06 48.46" style="enable-background:new 0 0 261.06 48.46;" xml:space="preserve">
<style type="text/css">
	.st0{fill:#4BDBC3;}
</style>
<g>
	<g>
		<path class="st0" d="M25.64,30.8c0-0.39,0.34-0.73,0.73-0.73h5.81c0.39,0,0.73,0.33,0.73,0.73V44.1c0,0.73-0.22,1.01-0.95,1.34    c-0.78,0.39-1.62,0.73-2.51,1.01c-3.18,1.01-5.25,1.34-8.43,1.34c-12.23,0-19.38-6.87-19.38-18.54c0-5.92,2.07-11.28,5.75-14.75    c3.52-3.35,8.27-4.97,14.58-4.97c2.96,0,5.42,0.34,7.93,1.12c2.51,0.78,3.02,1.12,3.02,2.07v4.08c0,0.5-0.22,0.78-0.61,0.78    c-0.22,0-0.56-0.11-0.89-0.28c-2.57-1.45-5.64-2.18-8.77-2.18c-8.55,0-13.74,5.31-13.74,13.96c0,8.21,4.75,13.13,12.68,13.13    c1.4,0,2.51-0.11,3.35-0.34c0.56-0.17,0.73-0.39,0.73-1V30.8z M67.52,47.34c-0.39,0-0.73-0.34-0.73-0.73v-35.8    c0-0.39,0.34-0.73,0.73-0.73h13.35c6.42,0,9.94,1.29,13.35,4.75c3.24,3.41,4.8,7.71,4.8,13.29c0,6.14-1.84,11-5.59,14.58    c-3.46,3.29-7.32,4.64-13.24,4.64H67.52z M74.06,41.86h4.91c4.08,0,6.53-0.84,8.88-3.02c2.62-2.4,4.08-5.92,4.08-10.11    c0-8.15-4.86-13.18-12.79-13.18h-5.08V41.86z M103.35,13.14v4.36c1.06-0.73,1.73-0.95,3.15-0.95c3.55,0,6.06,2.51,6.06,6    c0,3.91-2.74,6.34-7.17,6.34c-1.14,0-2.23-0.14-3.32-0.45c-0.39-0.11-0.78-0.22-1.17-0.39c-0.5-0.17-0.61-0.33-0.61-0.73v-2.07    c0-0.39,0.14-0.59,0.39-0.59c0.14,0,0.31,0.08,0.56,0.28c1.01,0.73,2.29,1.12,3.71,1.12c2.51,0,3.99-1.31,3.99-3.55    c0-2.12-1.28-3.41-3.46-3.41c-0.92,0-1.67,0.2-2.34,0.59c-0.53,0.33-0.61,0.36-0.87,0.36h-1.34c-0.2,0-0.36-0.17-0.36-0.36v-9.3    c0-0.2,0.17-0.36,0.36-0.36h10.72c0.19,0,0.36,0.17,0.36,0.36v2.37c0,0.2-0.17,0.36-0.36,0.36"/>
		<path class="st0" d="M78.34,3.5c0.2,0.67,0.29,1.36,0.25,2.07c-0.03,0.71-0.18,1.36-0.45,1.97c-0.27,0.61-0.66,1.09-1.16,1.46    c-0.5,0.37-1.13,0.55-1.86,0.55c-0.94,0-1.6-0.18-1.97-0.55c-0.37-0.37-0.61-0.79-0.71-1.26c-0.1-0.47-0.1-0.96,0-1.46l0.25-1.26    c0.13-0.4,0.07-0.69-0.2-0.86c-0.27-0.17-0.54-0.25-0.81-0.25c-0.81,0-1.78,0.44-2.92,1.31c-1.14,0.87-2.32,2.02-3.53,3.43    c-1.21,1.41-2.45,2.97-3.73,4.69l-3.63,5.09l-3.12,4.74l-2.22,3.43l0.55,3.48c0.3,1.78,0.69,3.63,1.16,5.54    c0.47,1.92,0.99,3.63,1.56,5.14c0.57,1.51,1.16,2.27,1.76,2.27c1.34,0,2.64-0.49,3.88-1.46c1.24-0.97,2.74-2.27,4.48-3.88    c-0.67,1.14-1.48,2.39-2.42,3.73c-0.94,1.34-2.05,2.52-3.33,3.53c-0.87,0.74-1.81,1.34-2.82,1.81c-1.01,0.47-2.08,0.71-3.22,0.71    c-1.14,0-2.2-0.35-3.17-1.06c-0.98-0.71-1.66-1.93-2.07-3.68c-0.34-1.34-0.6-2.72-0.81-4.13c-0.2-1.41-0.47-2.79-0.81-4.13    l-2.72,3.98c-1.01,1.51-2.13,2.92-3.38,4.23c-1.24,1.31-2.64,2.42-4.18,3.33c-1.55,0.91-3.29,1.36-5.24,1.36    c-2.15,0-3.63-0.94-4.43-2.82c-0.34-0.81-0.47-1.65-0.4-2.52c0.07-0.87,0.54-1.58,1.41-2.12c0.67-0.47,1.39-0.6,2.17-0.4    c0.77,0.2,1.33,0.5,1.66,0.91c0.27,0.27,0.44,0.61,0.5,1.01c0.07,0.4,0.12,0.79,0.15,1.16c0.03,0.37,0.12,0.69,0.25,0.96    c0.13,0.27,0.44,0.4,0.91,0.4c1.01,0,2.17-0.45,3.48-1.36c1.31-0.91,2.59-2,3.83-3.27c1.24-1.28,2.39-2.59,3.43-3.93    c1.04-1.34,1.76-2.45,2.17-3.33l-2.62-14.21c-0.07-0.34-0.14-0.81-0.2-1.41c-0.07-0.61-0.18-1.21-0.35-1.82    c-0.17-0.6-0.42-1.14-0.75-1.61c-0.34-0.47-0.77-0.7-1.31-0.7c-0.81,0-1.65,0.29-2.52,0.86c-0.87,0.57-1.75,1.26-2.62,2.07    c-0.87,0.81-1.66,1.65-2.37,2.52l-1.76,2.12c0.47-1.41,1.16-2.8,2.07-4.18c0.91-1.38,1.91-2.62,3.02-3.73    c1.11-1.11,2.27-2.02,3.48-2.72c1.21-0.7,2.38-1.06,3.53-1.06c1.68,0,2.94,0.45,3.78,1.36c0.84,0.91,1.53,2.84,2.07,5.79    l1.71,8.87l6.55-9.68c2.08-3.09,4.03-5.74,5.84-7.96c1.54-1.88,2.99-3.33,4.33-4.33c1.34-1.01,2.69-1.51,4.03-1.51    C75.96,0.68,77.81,1.62,78.34,3.5"/>
	</g>
	<g>
		<path class="st0" d="M124.1,10.03h14.82c2.18,0,4.12,0.3,5.83,0.91s3.16,1.46,4.35,2.56c1.19,1.11,2.11,2.43,2.75,3.96    c0.64,1.54,0.96,3.24,0.96,5.1v0.1c0,2.11-0.38,3.96-1.14,5.54c-0.76,1.59-1.81,2.92-3.13,3.99c-1.33,1.07-2.88,1.87-4.66,2.41    c-1.78,0.54-3.69,0.8-5.73,0.8h-6.06V46.3h-7.98V10.03z M138.4,28.32c2,0,3.56-0.53,4.66-1.58c1.1-1.05,1.66-2.36,1.66-3.91v-0.1    c0-1.8-0.58-3.16-1.74-4.09s-2.74-1.4-4.74-1.4h-6.17v11.09H138.4z"/>
		<path class="st0" d="M169.59,9.77h7.36L192.5,46.3h-8.34l-3.32-8.13H165.5l-3.32,8.13h-8.14L169.59,9.77z M177.99,31.12    l-4.82-11.76l-4.82,11.76H177.99z"/>
		<path class="st0" d="M213.53,46.93c-2.66,0-5.13-0.48-7.41-1.45s-4.25-2.29-5.91-3.96c-1.66-1.67-2.95-3.65-3.89-5.93    c-0.93-2.28-1.4-4.72-1.4-7.31v-0.1c0-2.59,0.47-5.02,1.4-7.28c0.93-2.26,2.23-4.25,3.89-5.96c1.66-1.71,3.64-3.06,5.96-4.04    c2.31-0.98,4.87-1.48,7.67-1.48c1.69,0,3.24,0.14,4.64,0.41c1.4,0.28,2.67,0.66,3.81,1.14c1.14,0.48,2.19,1.07,3.16,1.76    c0.97,0.69,1.87,1.45,2.69,2.28l-5.08,5.86c-1.42-1.28-2.86-2.28-4.33-3.01c-1.47-0.72-3.12-1.09-4.95-1.09    c-1.52,0-2.93,0.29-4.22,0.88c-1.29,0.59-2.41,1.4-3.34,2.44s-1.66,2.24-2.18,3.6c-0.52,1.36-0.78,2.82-0.78,4.38v0.1    c0,1.55,0.26,3.02,0.78,4.4c0.52,1.38,1.23,2.59,2.15,3.63c0.91,1.04,2.02,1.86,3.32,2.46c1.3,0.6,2.72,0.91,4.28,0.91    c2.07,0,3.83-0.38,5.26-1.14s2.86-1.8,4.28-3.11l5.08,5.13c-0.93,1-1.9,1.9-2.9,2.69c-1,0.8-2.1,1.48-3.29,2.05    c-1.19,0.57-2.5,1-3.91,1.3C216.88,46.78,215.29,46.93,213.53,46.93z"/>
		<path class="st0" d="M246.18,46.82c-2.76,0-5.48-0.48-8.13-1.43c-2.66-0.95-5.08-2.41-7.25-4.38l4.72-5.65    c1.66,1.35,3.36,2.42,5.1,3.21c1.74,0.79,3.65,1.19,5.73,1.19c1.66,0,2.94-0.3,3.86-0.91c0.92-0.6,1.37-1.44,1.37-2.51v-0.1    c0-0.52-0.1-0.98-0.29-1.37c-0.19-0.4-0.55-0.77-1.09-1.11c-0.54-0.35-1.28-0.69-2.23-1.04c-0.95-0.34-2.19-0.71-3.71-1.09    c-1.84-0.45-3.5-0.95-4.99-1.5c-1.49-0.55-2.75-1.23-3.79-2.05c-1.04-0.81-1.84-1.82-2.42-3.03c-0.57-1.21-0.86-2.71-0.86-4.51    v-0.1c0-1.66,0.31-3.15,0.93-4.48c0.62-1.33,1.48-2.48,2.6-3.45c1.12-0.97,2.45-1.71,4-2.23c1.55-0.52,3.25-0.78,5.12-0.78    c2.66,0,5.1,0.4,7.33,1.19c2.23,0.79,4.28,1.94,6.14,3.42l-4.15,6.01c-1.62-1.11-3.21-1.98-4.77-2.62    c-1.55-0.64-3.11-0.96-4.66-0.96s-2.72,0.3-3.5,0.91c-0.78,0.61-1.17,1.36-1.17,2.25v0.1c0,0.59,0.11,1.1,0.34,1.53    c0.22,0.43,0.63,0.82,1.22,1.17c0.59,0.35,1.39,0.67,2.42,0.98c1.02,0.31,2.31,0.67,3.87,1.09c1.84,0.48,3.47,1.03,4.91,1.63    c1.44,0.61,2.65,1.33,3.64,2.18c0.99,0.85,1.73,1.84,2.23,2.98c0.5,1.14,0.75,2.5,0.75,4.09v0.1c0,1.8-0.33,3.39-0.98,4.79    c-0.65,1.4-1.56,2.57-2.73,3.52c-1.17,0.95-2.56,1.68-4.18,2.18C249.94,46.57,248.14,46.82,246.18,46.82z"/>
	</g>
</g>
</svg>