<?xml version="1.0" encoding="UTF-8"?>
<svg width="118px" height="19px" viewBox="0 0 118 19" version="1.1" xmlns="http://www.w3.org/2000/svg" xmlns:xlink="http://www.w3.org/1999/xlink">
    <title>logo_gxd5ris</title>
    <g id="Nehs-LP" stroke="none" stroke-width="1" fill="none" fill-rule="evenodd">
        <g id="Nehs-LP-Desktop-Version-01" transform="translate(-191.000000, -1705.000000)" fill="#4BDBC3">
            <g id="DEMO" transform="translate(-49.501416, 676.000000)">
                <g id="CARD-2" transform="translate(202.000000, 921.000000)">
                    <g id="Group-9" transform="translate(39.000000, 108.000000)">
                        <path d="M49,18.6650718 L51.4321297,18.6650718 L51.4321297,13.9282297 L54.945206,13.9282297 L58.4582823,18.6650718 L61.1360817,18.6650718 L61.1360817,18.3301435 L57.5984385,13.6650718 L57.5984385,13.5454545 C58.5647392,13.1945774 59.3263152,12.6403509 59.8831664,11.8827751 C60.4400177,11.1251994 60.7184433,10.2041467 60.7184433,9.11961722 C60.7184433,7.63636364 60.210726,6.46411483 59.1952913,5.60287081 C58.1798567,4.74162679 56.8041065,4.31100478 55.0680409,4.31100478 L49,4.31100478 L49,18.6650718 Z M57.3404853,11.1411483 C56.7754451,11.5956938 56.0261526,11.8229665 55.0926078,11.8229665 L51.4321297,11.8229665 L51.4321297,6.41626794 L54.945206,6.41626794 C55.9606407,6.41626794 56.7549726,6.64752791 57.3282018,7.11004785 C57.9014311,7.57256778 58.1880457,8.25039872 58.1880457,9.14354067 C58.1880457,10.0207337 57.9055256,10.6866029 57.3404853,11.1411483 L57.3404853,11.1411483 Z M63.7156133,18.6650718 L66.147743,18.6650718 L66.147743,4.31100478 L63.7156133,4.31100478 L63.7156133,18.6650718 Z M69.0712121,17.3732057 C69.2022359,17.5007974 69.4233386,17.6523126 69.7345202,17.8277512 C70.0457018,18.0031898 70.4060173,18.1826156 70.8154668,18.3660287 C71.2249162,18.5494418 71.753106,18.7009569 72.4000361,18.8205742 C73.0469663,18.9401914 73.7225579,19 74.4268109,19 C76.1956325,19 77.5509102,18.5933014 78.492644,17.7799043 C79.4343777,16.9665072 79.9052446,15.9218501 79.9052446,14.645933 C79.9052446,13.5295056 79.5203621,12.6283892 78.7505971,11.9425837 C77.9808321,11.2567783 76.7033499,10.6666667 74.9181503,10.1722488 C73.6570459,9.80542265 72.7972021,9.47049442 72.3386187,9.16746411 C71.8800353,8.86443381 71.6507436,8.47368421 71.6507436,7.99521531 C71.6507436,7.42105263 71.8923188,6.9784689 72.3754692,6.66746411 C72.8586195,6.35645933 73.5260221,6.20095694 74.377677,6.20095694 C75.098308,6.20095694 75.7861831,6.31259968 76.4413022,6.53588517 C77.0964213,6.75917065 77.5263433,6.93460925 77.731068,7.06220096 C77.9357927,7.18979266 78.087289,7.30143541 78.1855569,7.39712919 L79.5121731,5.45933014 L79.0454007,5.10047847 C78.7342191,4.86124402 78.1487064,4.61802233 77.2888626,4.3708134 C76.4290187,4.12360447 75.4586235,4 74.377677,4 C72.6579893,4 71.3272786,4.36682616 70.3855448,5.10047847 C69.4438111,5.83413078 68.9729442,6.83094099 68.9729442,8.09090909 C68.9729442,9.1754386 69.3578267,10.0366826 70.1275917,10.6746411 C70.8973566,11.3125997 72.142083,11.8787879 73.8617707,12.3732057 C75.1720089,12.7559809 76.0564197,13.1188198 76.5150031,13.4617225 C76.9735865,13.8046252 77.2028782,14.2551834 77.2028782,14.8133971 C77.2028782,15.4194577 76.969492,15.9019139 76.5027196,16.2607656 C76.0359473,16.6196172 75.3194107,16.7990431 74.35311,16.7990431 C73.632479,16.7990431 72.9077534,16.6714514 72.1789334,16.4162679 C71.4501134,16.1610845 70.966963,15.953748 70.7294824,15.7942584 C70.4920017,15.6347687 70.3077494,15.507177 70.1767256,15.4114833 L68.8501094,17.2057416 L69.0712121,17.3732057 Z M97.3464263,18.6650718 L97.3464263,16.5598086 L90.909881,16.5598086 L95.4302029,12.1578947 C96.5275274,11.1052632 97.0761897,9.8692185 97.0761897,8.44976077 C97.0761897,7.15789474 96.6094173,6.09330144 95.6758726,5.25598086 C94.7423278,4.41866029 93.4402786,4 91.7697248,4 C91.1801176,4 90.6027939,4.07177033 90.0377536,4.215311 C89.4727134,4.35885167 89.01413,4.51435407 88.6620035,4.68181818 C88.309877,4.8492823 87.9741284,5.04864434 87.6547578,5.27990431 C87.3353873,5.51116427 87.1265681,5.67065391 87.0283002,5.75837321 C86.9300323,5.8460925 86.8563314,5.9138756 86.8071975,5.96172249 L88.1092467,7.85167464 C88.1256247,7.83572568 88.2034201,7.76794258 88.3426329,7.64832536 C88.4818457,7.52870813 88.5964916,7.43700159 88.6865705,7.37320574 C88.7766493,7.30940989 88.9117677,7.21371611 89.0919254,7.0861244 C89.2720832,6.9585327 89.4440519,6.85486443 89.6078317,6.77511962 C89.7716115,6.6953748 89.9599583,6.61164274 90.172872,6.52392344 C90.3857857,6.43620415 90.6109829,6.37240829 90.8484636,6.33253589 C91.0859442,6.29266348 91.3275194,6.27272727 91.5731891,6.27272727 C92.392088,6.27272727 93.0513016,6.50398724 93.5508299,6.96650718 C94.0503583,7.42902711 94.3001224,8.00318979 94.3001224,8.68899522 C94.3001224,9.15151515 94.2059491,9.5661882 94.0176023,9.93301435 C93.8292556,10.2998405 93.4812235,10.7304625 92.9735062,11.2248804 L87.0528671,17.0143541 L87.0528671,18.6650718 L97.3464263,18.6650718 Z M102.456355,17.492823 C102.456355,17.0940989 102.313048,16.7551834 102.026434,16.4760766 C101.739819,16.1969697 101.391787,16.0574163 100.982337,16.0574163 C100.572888,16.0574163 100.224856,16.1969697 99.9382414,16.4760766 C99.6516268,16.7551834 99.5083195,17.0940989 99.5083195,17.492823 C99.5083195,17.891547 99.6516268,18.2264753 99.9382414,18.4976077 C100.224856,18.76874 100.572888,18.9043062 100.982337,18.9043062 C101.391787,18.9043062 101.739819,18.76874 102.026434,18.4976077 C102.313048,18.2264753 102.456355,17.891547 102.456355,17.492823 L102.456355,17.492823 Z M115.292596,16.84689 C116.430865,15.4114833 117,13.6331738 117,11.5119617 C117,9.35885167 116.430865,7.56858054 115.292596,6.14114833 C114.154326,4.71371611 112.569757,4 110.538888,4 C108.524396,4 106.948016,4.71371611 105.809747,6.14114833 C104.671477,7.56858054 104.102342,9.35885167 104.102342,11.5119617 C104.102342,13.6331738 104.671477,15.4114833 105.809747,16.84689 C106.948016,18.2822967 108.524396,19 110.538888,19 C112.569757,19 114.154326,18.2822967 115.292596,16.84689 L115.292596,16.84689 Z M107.627702,15.2559809 C106.931638,14.2910686 106.583606,13.0430622 106.583606,11.5119617 C106.583606,9.98086124 106.931638,8.72488038 107.627702,7.74401914 C108.323766,6.76315789 109.294161,6.27272727 110.538888,6.27272727 C111.799992,6.27272727 112.774482,6.75917065 113.462357,7.73205742 C114.150232,8.70494418 114.494169,9.96491228 114.494169,11.5119617 C114.494169,13.0430622 114.150232,14.2910686 113.462357,15.2559809 C112.774482,16.2208931 111.799992,16.7033493 110.538888,16.7033493 C109.294161,16.7033493 108.323766,16.2208931 107.627702,15.2559809 L107.627702,15.2559809 Z" id="Fill-1"/>
                        <path d="M9.74135045,12.3430386 C9.74135045,12.1895183 9.87691325,12.0584966 10.0357545,12.0584966 L12.3923561,12.0584966 C12.5498281,12.0584966 12.6867602,12.1895183 12.6867602,12.3430386 L12.6867602,17.5547909 C12.6867602,17.839333 12.5950157,17.9491795 12.301981,18.0802012 C11.9842985,18.2337215 11.6447068,18.3647433 11.2818367,18.4745897 C9.9905669,18.8689783 9.15254237,19 7.86127256,19 C2.89885281,19 0,16.3067761 0,11.7302806 C0,9.40894653 0.838024526,7.30730545 2.33332319,5.94944415 C3.7601558,4.63525675 5.68679062,4 8.24605179,4 C9.44694641,4 10.4438122,4.13234516 11.4625871,4.43806247 C12.4827313,4.74510323 12.6867602,4.87612493 12.6867602,5.24801482 L12.6867602,6.84674431 C12.6867602,7.04393859 12.5950157,7.15378507 12.4375437,7.15378507 C12.3471685,7.15378507 12.2116058,7.10878772 12.0746736,7.04393859 C11.0326203,6.47485442 9.78653805,6.19031233 8.51717737,6.19031233 C5.05142562,6.19031233 2.94540973,8.26945474 2.94540973,11.664108 C2.94540973,14.8840656 4.86930591,16.8096877 8.08721054,16.8096877 C8.65410948,16.8096877 9.10735478,16.7673372 9.44694641,16.678666 C9.6728844,16.6138168 9.74135045,16.5251456 9.74135045,16.2842774 L9.74135045,12.3430386 Z M26.7305176,18.8253044 C26.5730457,18.8253044 26.4361136,18.6929592 26.4361136,18.5394389 L26.4361136,4.50291159 C26.4361136,4.35071466 26.5730457,4.21969296 26.7305176,4.21969296 L32.1461826,4.21969296 C34.7506314,4.21969296 36.1788333,4.72260455 37.5604783,6.08046585 C38.8736573,7.41582848 39.5090223,9.10190577 39.5090223,11.2922181 C39.5090223,13.7008999 38.761373,15.6066702 37.2427958,17.0082054 C35.8392417,18.2985707 34.275477,18.8253044 31.8736877,18.8253044 L26.7305176,18.8253044 Z M29.3815233,16.678666 L31.3752548,16.678666 C33.0293948,16.678666 34.0262605,16.35045 34.9779387,15.4968237 C36.0432705,14.5545262 36.6320786,13.1754897 36.6320786,11.5330863 C36.6320786,8.33562732 34.6602562,6.36500794 31.4437209,6.36500794 L29.3815233,6.36500794 L29.3815233,16.678666 Z M41.2631227,5.41874007 L41.2631227,7.12599259 C41.6930895,6.8414505 41.9642151,6.75277925 42.5420686,6.75277925 C43.9798558,6.75277925 45,7.73875066 45,9.10587612 C45,10.638433 43.8894806,11.5899947 42.0888233,11.5899947 C41.6246234,11.5899947 41.1823327,11.5357332 40.7414113,11.4152991 C40.5825701,11.3716252 40.4250981,11.3279513 40.2662569,11.2617787 C40.062228,11.1969296 40.0170404,11.130757 40.0170404,10.9772366 L40.0170404,10.1672843 C40.0170404,10.0150873 40.0731826,9.93832716 40.1758817,9.93832716 C40.2320239,9.93832716 40.3004899,9.97141345 40.4018197,10.0468502 C40.8098774,10.3327157 41.3302194,10.4849127 41.9080729,10.4849127 C42.9268478,10.4849127 43.5266105,9.97141345 43.5266105,9.09528851 C43.5266105,8.26283748 43.0062684,7.75992589 42.1230563,7.75992589 C41.7492317,7.75992589 41.443873,7.83668608 41.1727475,7.99020646 C40.9563947,8.12122816 40.9221617,8.13181578 40.8208319,8.13181578 L40.2772115,8.13181578 C40.1977908,8.13181578 40.1293248,8.06696665 40.1293248,7.99020646 L40.1293248,4.34542086 C40.1293248,4.26866067 40.1977908,4.20381154 40.2772115,4.20381154 L44.6261753,4.20381154 C44.7042266,4.20381154 44.7726927,4.26866067 44.7726927,4.34542086 L44.7726927,5.27580731 C44.7726927,5.3525675 44.7042266,5.41874007 44.6261753,5.41874007 L41.2631227,5.41874007 Z" id="Fill-3"/>
                        <path d="M30.8945895,1.14661084 C30.9769057,1.41954811 31.0098322,1.6993431 30.9974847,1.98599581 C30.9837654,2.27264852 30.9234002,2.53872807 30.8122733,2.78423446 C30.7038904,3.02974085 30.5474896,3.22861474 30.3416992,3.37811304 C30.1372807,3.52761135 29.8848444,3.60304627 29.5843904,3.60304627 C29.2029921,3.60304627 28.9354645,3.52761135 28.7859235,3.37811304 C28.6363824,3.22861474 28.5403469,3.05717173 28.4991888,2.86652711 C28.4580307,2.67588248 28.4580307,2.47700859 28.4991888,2.27264852 L28.602084,1.76106259 C28.6555895,1.5964773 28.6281508,1.4812676 28.5197678,1.41269039 C28.4100129,1.34411319 28.3016299,1.31119613 28.191875,1.31119613 C27.8639823,1.31119613 27.4688646,1.48812532 27.0037782,1.84335523 C26.5400638,2.1972136 26.0626299,2.66216704 25.5714768,3.23410092 C25.0789516,3.80877788 24.5740791,4.44243124 24.0554872,5.13917563 L22.5806557,7.20609254 L21.3116146,9.13174042 L20.4102525,10.5238576 L20.63525,11.936548 C20.7573524,12.6593518 20.915125,13.4095864 21.1058242,14.1886234 C21.2965233,14.9662889 21.5091734,15.6630333 21.7410307,16.277485 C21.9728879,16.8905652 22.2116048,17.1977911 22.4571814,17.1977911 C23.004584,17.1977911 23.5300356,17.0002887 24.0349081,16.6039125 C24.5397807,16.2089078 25.1475484,15.6836064 25.8568395,15.0280084 C25.5838242,15.4915903 25.2573033,15.99769 24.8745331,16.542193 C24.4917629,17.0894391 24.0417678,17.5667364 23.521804,17.9754566 C23.1678444,18.2771963 22.7850742,18.5227027 22.3762372,18.7133473 C21.9660282,18.9039919 21.5297525,19 21.0646661,19 C20.6023236,19 20.1715356,18.8573594 19.775046,18.5693352 C19.3785564,18.2826825 19.1000533,17.784812 18.935421,17.0757237 C18.7995993,16.5298491 18.6898444,15.9688876 18.6075282,15.3969537 C18.525212,14.8236483 18.4168291,14.2640583 18.2796354,13.7168122 L17.1752267,15.3352342 C16.7650178,15.949686 16.3067911,16.5229914 15.8032905,17.0551505 C15.297046,17.5873096 14.7304363,18.0385476 14.1034614,18.4061214 C13.4751146,18.7750668 12.7644516,18.9588537 11.9728444,18.9588537 C11.098921,18.9588537 10.4980129,18.5761929 10.171492,17.8122428 C10.0342984,17.4844438 9.97942096,17.1443009 10.0068597,16.789071 C10.0342984,16.433841 10.2249975,16.1471883 10.580329,15.9291128 C10.8533444,15.7370967 11.1469387,15.6836064 11.4611121,15.7645275 C11.7752855,15.8468202 12.0002831,15.9688876 12.1374767,16.1334729 C12.2458597,16.2418249 12.3144565,16.3789793 12.3418952,16.542193 C12.369334,16.7067783 12.389913,16.8631343 12.4036324,17.0140042 C12.4173517,17.1635025 12.4502782,17.2937992 12.5051556,17.4021512 C12.5600331,17.5118747 12.6835074,17.5667364 12.8742065,17.5667364 C13.2830435,17.5667364 13.7549896,17.381578 14.2873009,17.0140042 C14.8196121,16.6450588 15.3382041,16.2020501 15.8430766,15.6836064 C16.3479492,15.1651628 16.8130356,14.6316321 17.2355919,14.0857576 C17.6595202,13.5398831 17.9531146,13.0900166 18.116375,12.7347867 L17.0517525,6.9619577 C17.0243137,6.82480329 16.996875,6.63415867 16.9694363,6.38865228 C16.9433695,6.14177434 16.8939798,5.89626796 16.8267549,5.65076157 C16.7581581,5.40525518 16.6552629,5.18717967 16.5194412,4.9951635 C16.3822476,4.80451888 16.2052678,4.70988234 15.9871299,4.70988234 C15.6592371,4.70988234 15.317625,4.82509204 14.9636655,5.05688299 C14.606962,5.28867393 14.2530025,5.56846892 13.897671,5.89626796 C13.5437114,6.22406699 13.2226783,6.56558146 12.9359436,6.92081138 L12.218421,7.78076951 C12.4091201,7.20609254 12.6889951,6.64101639 13.0594179,6.08005486 C13.4270968,5.52183643 13.8359338,5.01573666 14.2873009,4.56587021 C14.737296,4.11463221 15.209242,3.7470584 15.7003952,3.46040569 C16.1915484,3.17375298 16.6689822,3.02974085 17.1340686,3.02974085 C17.815921,3.02974085 18.3276532,3.2148993 18.6692653,3.58384465 C19.0108775,3.95141847 19.2907525,4.73594167 19.5088903,5.93741428 L20.205834,9.54046055 L22.8673903,5.60961525 C23.713875,4.35328088 24.5054823,3.27661878 25.243584,2.37551433 C25.8705589,1.61019274 26.4577476,1.02454342 27.0037782,0.614451743 C27.5498089,0.204360066 28.0958395,0 28.6418701,0 C29.9260025,0 30.6764516,0.382660795 30.8945895,1.14661084" id="Fill-5"/>
                    </g>
                </g>
            </g>
        </g>
    </g>
</svg>